<svg width="25" height="25" viewBox="0 0 25 25" fill="none" xmlns="http://www.w3.org/2000/svg">
<path d="M12.5 21.875C11.1843 20.7527 9.96476 19.5224 8.85415 18.1969C7.18748 16.2062 5.20831 13.2417 5.20831 10.4167C5.20759 8.97391 5.63488 7.56338 6.43612 6.36356C7.23735 5.16375 8.37651 4.2286 9.70943 3.67645C11.0423 3.1243 12.5091 2.97998 13.9241 3.26176C15.339 3.54353 16.6386 4.23873 17.6583 5.25937C18.3372 5.93526 18.8753 6.7391 19.2415 7.62434C19.6077 8.50959 19.7947 9.45867 19.7916 10.4167C19.7916 13.2417 17.8125 16.2062 16.1458 18.1969C15.0352 19.5224 13.8157 20.7527 12.5 21.875ZM12.5 7.29166C11.6712 7.29166 10.8763 7.6209 10.2903 8.20695C9.70422 8.793 9.37498 9.58786 9.37498 10.4167C9.37498 11.2455 9.70422 12.0403 10.2903 12.6264C10.8763 13.2124 11.6712 13.5417 12.5 13.5417C13.3288 13.5417 14.1236 13.2124 14.7097 12.6264C15.2957 12.0403 15.625 11.2455 15.625 10.4167C15.625 9.58786 15.2957 8.793 14.7097 8.20695C14.1236 7.6209 13.3288 7.29166 12.5 7.29166Z" fill="black"/>
</svg>
