<svg width="40" height="40" viewBox="0 0 40 40" fill="none" xmlns="http://www.w3.org/2000/svg">
<path d="M20 20.0555C14.5012 20.0555 10.0277 24.529 10.0277 30.0277C10.0277 30.9202 10.7511 31.6435 11.6435 31.6435C12.5358 31.6435 13.2593 30.9202 13.2593 30.0277C13.2593 26.3109 16.2831 23.287 20 23.287C23.7169 23.287 26.7406 26.3109 26.7406 30.0277C26.7406 30.9202 27.464 31.6435 28.3564 31.6435C29.2488 31.6435 29.9722 30.9202 29.9722 30.0277C29.9722 24.529 25.4986 20.0555 20 20.0555Z" fill="black"/>
<path d="M20 1.67133C19.1077 1.67133 18.3842 2.39476 18.3842 3.28711V14.9861C18.3842 15.8784 19.1077 16.6019 20 16.6019C20.8924 16.6019 21.6158 15.8785 21.6158 14.9862V3.28711C21.6158 2.39476 20.8924 1.67133 20 1.67133Z" fill="black"/>
<path d="M10.5131 18.2558L8.13985 15.8826C7.50892 15.2515 6.48579 15.2515 5.85485 15.8826C5.22384 16.5135 5.22384 17.5365 5.85485 18.1676L8.22806 20.5408C8.54353 20.8564 8.95712 21.0141 9.37063 21.0141C9.78423 21.0141 10.1977 20.8564 10.5131 20.5408C11.1441 19.9098 11.1441 18.8868 10.5131 18.2558Z" fill="black"/>
<path d="M4.95836 28.4119H1.61578C0.723437 28.4119 0 29.1353 0 30.0277C0 30.9201 0.723437 31.6435 1.61578 31.6435H4.95836C5.85078 31.6435 6.57414 30.9201 6.57414 30.0277C6.57414 29.1353 5.8507 28.4119 4.95836 28.4119Z" fill="black"/>
<path d="M38.3842 28.4119H35.0416C34.1491 28.4119 33.4258 29.1353 33.4258 30.0277C33.4258 30.9201 34.1491 31.6435 35.0416 31.6435H38.3842C39.2766 31.6435 40 30.9201 40 30.0277C40 29.1353 39.2766 28.4119 38.3842 28.4119Z" fill="black"/>
<path d="M34.1452 15.8826C33.5142 15.2515 32.4911 15.2515 31.8601 15.8826L29.4869 18.2558C28.856 18.8868 28.856 19.9098 29.4869 20.5408C29.8024 20.8564 30.216 21.0141 30.6295 21.0141C31.0429 21.0141 31.4565 20.8563 31.7721 20.5409L34.1453 18.1676C34.7761 17.5366 34.7761 16.5136 34.1452 15.8826Z" fill="black"/>
<path d="M38.3842 35.0971H1.61578C0.723437 35.0971 0 35.8205 0 36.7129C0 37.6053 0.723437 38.3287 1.61578 38.3287H38.3842C39.2766 38.3287 40 37.6053 40 36.7129C40 35.8205 39.2766 35.0971 38.3842 35.0971Z" fill="black"/>
<path d="M27.8278 8.82974L21.1427 2.14459C20.5116 1.51357 19.4886 1.51357 18.8576 2.14459L12.1724 8.82974C11.5414 9.46068 11.5414 10.4837 12.1724 11.1147C12.8034 11.7458 13.8265 11.7458 14.4574 11.1147L20 5.57217L25.5427 11.1148C25.8581 11.4303 26.2717 11.5881 26.6852 11.5881C27.0988 11.5881 27.5123 11.4304 27.8279 11.1148C28.4588 10.4839 28.4588 9.46084 27.8278 8.82974Z" fill="black"/>
</svg>
